<?xml version="1.0" encoding="UTF-8"?>
<!DOCTYPE svg PUBLIC "-//W3C//DTD SVG 1.1//EN" "http://www.w3.org/Graphics/SVG/1.1/DTD/svg11.dtd">
<!-- Creator: CorelDRAW -->
<svg xmlns="http://www.w3.org/2000/svg" xml:space="preserve" width="2048px" height="2048px" style="shape-rendering:geometricPrecision; text-rendering:geometricPrecision; image-rendering:optimizeQuality; fill-rule:evenodd; clip-rule:evenodd"
viewBox="0 0 2048 2048"
 xmlns:xlink="http://www.w3.org/1999/xlink">
 <defs>
  <style type="text/css">
   <![CDATA[
    .fil3 {fill:none}
    .fil0 {fill:none;fill-rule:nonzero}
    .fil1 {fill:#424242}
    .fil2 {fill:#424242;fill-rule:nonzero}
   ]]>
  </style>
 </defs>
 <g id="Layer_x0020_1">
  <metadata id="CorelCorpID_0Corel-Layer"/>
  <path class="fil0" d="M828.16 1166.26c-2.01614,17.1874 -17.3894,29.7189 -34.7185,28.1209"/>
  <path class="fil1" d="M756.767 1486.91c-0.0200788,0.878741 0.0720473,1.86732 0.12874,2.69173 8.46615,121.947 121.519,109.101 143.061,36.7335 9.08977,-30.6272 38.8181,-273.496 42.6307,-317.58 2.87362,-33.2327 4.44922,-68.8926 0.122835,-102.041 -8.72009,-66.8209 -36.352,-93.6816 -104.472,-95.0387l-220.035 -4.38662c52.4646,-69.1819 86.752,-119.355 156.719,-172.802 11.302,29.361 27.4666,83.7816 48.2646,105.99 23.3894,24.9744 207.181,59.713 249.751,74.0717 105.522,29.6008 115.595,-80.6481 31.3996,-112.449 -1.86142,-0.703938 -3.78071,-1.30039 -5.66693,-1.93701l-170.671 -68.1615 -46.5981 -191.515c-6.62953,-22.5177 -14.8228,-49.976 -32.0681,-66.828 -29.7189,-29.041 -69.7619,-38.1036 -108.402,-25.6618 -51.4205,16.5555 -99.3733,65.4107 -130.226,102.209 -30.3319,36.1772 -57.6674,75.5741 -82.8875,115.453 -41.1461,65.0611 -78.6745,134.459 -111.161,204.268 -12.952,27.8339 -23.4721,61.1304 -23.4721,91.9465 0,37.2969 24.0803,84.6201 61.0252,96.8883 94.7127,31.4492 224.816,20.7414 329.23,14.4697l-26.6752 313.68z"/>
  <path class="fil2" d="M1091.62 507.233c-17.5961,-17.5961 -41.9091,-28.4799 -68.7662,-28.4799 -26.8571,0 -51.1701,10.885 -68.7662,28.4811 -17.5961,17.5949 -28.4811,41.9091 -28.4811,68.765 0,26.8559 10.885,51.1701 28.4811,68.765 17.5961,17.5961 41.9091,28.4811 68.7662,28.4811 26.8571,0 51.1701,-10.885 68.7662,-28.4799 17.5961,-17.5961 28.4799,-41.9103 28.4799,-68.7662 0,-26.8571 -10.8839,-51.1701 -28.4799,-68.7662z"/>
  <path class="fil2" d="M1010.79 425.749c35.9067,0 68.4166,14.5571 91.9513,38.0906 23.5335,23.5347 38.0906,56.0445 38.0906,91.9513 0,35.9055 -14.5571,68.4166 -38.0906,91.9513 -23.5347,23.5335 -56.0445,38.0906 -91.9513,38.0906 -35.9067,0 -68.4166,-14.5571 -91.9513,-38.0918 -23.5335,-23.5323 -38.0918,-56.0434 -38.0918,-91.9501 0,-35.9067 14.5583,-68.4178 38.0918,-91.9501 23.5347,-23.5347 56.0445,-38.0918 91.9513,-38.0918z"/>
  <path class="fil2" d="M277.993 1566c-1.7941,17.5347 10.9654,33.2067 28.5,35.0008 17.5347,1.7941 33.2067,-10.9654 35.0008,-28.5l31.1788 -252.859 239.171 0 55.5709 255.358c3.17481,17.3268 19.7977,28.8 37.1244,25.6252 17.3268,-3.17481 28.8,-19.7977 25.6252,-37.1244l-59.9989 -322.266c-1.64291,-16.1303 -15.2693,-28.7197 -31.8343,-28.7197l-294.225 0c-16.2496,-0.0968505 -30.2421,12.1476 -31.9796,28.6488l0.0732284 0.101575 -34.2071 324.735z"/>
  <path class="fil2" d="M287.499 732.37c-2.69173,-17.3965 -18.9791,-29.3162 -36.3756,-26.6244 -17.3965,2.69173 -29.3162,18.9791 -26.6244,36.3756l79.7717 509.261c2.69173,17.3965 18.9791,29.3162 36.3756,26.6244 17.3965,-2.69173 29.3162,-18.9791 26.6244,-36.3756l-79.7717 -509.261z"/>
  <polygon class="fil2" points="1088,846.328 1792,846.328 1792,910.329 1088,910.329 "/>
  <polygon class="fil2" points="1278.5,1601.25 1278.5,878.326 1342.5,878.326 1342.5,1601.25 "/>
  <polygon class="fil2" points="1642.1,1601.25 1642.1,878.326 1706.1,878.326 1706.1,1601.25 "/>
  <path class="fil2" d="M1552 769.247c0,-8.83583 -7.16457,-16.0004 -16.0004,-16.0004 -8.83583,0 -16.0004,7.16457 -16.0004,16.0004l-26.563 89.23c0,8.83583 33.7276,22.7705 42.5634,22.7705 8.83583,0 42.5634,-8.72599 42.5634,-17.5618l-26.563 -94.4387z"/>
  <path class="fil2" d="M1443.88 520.94l212.157 -25.5898 0.0531496 -0.0366142c8.26064,0.870473 14.387,7.88268 14.3221,16.0217l-2.08347 265.918c0,8.83583 -7.16457,16.0004 -16.0004,16.0004 -0.975591,0 -1.92992,-0.0885827 -2.85709,-0.255118l-213.719 -21.8067 -0.0531496 0.0366142c-8.26064,-0.870473 -14.387,-7.88268 -14.3221,-16.0217l3.64607 -218.522c0,-8.83583 7.16457,-16.0004 16.0004,-16.0004 0.975591,0 1.92992,0.0885827 2.85709,0.255118zm194.531 14.0185l-189.722 18.4193 -0.520867 155.601 191.284 5.54056 -1.04173 -179.561z"/>
 </g>
 <rect class="fil3" width="2048" height="2048"/>
</svg>
